<?xml version="1.0" standalone="no"?>
<!DOCTYPE svg PUBLIC "-//W3C//DTD SVG 20010904//EN"
 "http://www.w3.org/TR/2001/REC-SVG-20010904/DTD/svg10.dtd">
<svg version="1.0" xmlns="http://www.w3.org/2000/svg"
 width="1106.000000pt" height="226.000000pt" viewBox="0 0 1106.000000 226.000000"
 preserveAspectRatio="xMidYMid meet">

<g transform="translate(0.000000,226.000000) scale(0.100000,-0.100000)"
fill="#000000" stroke="none">
<path d="M1022 2249 c-414 -40 -779 -312 -932 -694 -63 -156 -75 -223 -75
-425 1 -171 3 -193 28 -284 52 -189 142 -349 274 -487 157 -164 320 -259 548
-319 100 -26 300 -37 410 -22 490 67 876 438 961 923 24 137 15 351 -20 479
-146 531 -652 883 -1194 829z m-523 -646 c17 -75 76 -236 108 -293 34 -59 79
-107 125 -131 45 -23 127 -25 167 -4 53 27 129 123 178 225 27 54 50 99 53 99
3 0 26 -44 52 -98 49 -102 125 -199 179 -226 40 -21 122 -19 167 4 92 47 158
162 222 386 l26 90 42 3 41 3 -14 -43 c-14 -43 -106 -346 -291 -953 -53 -176
-100 -324 -104 -328 -4 -5 -14 13 -22 40 -96 325 -294 973 -298 973 -3 0 -72
-224 -154 -497 -82 -274 -153 -505 -157 -513 -10 -20 23 -122 -283 885 -59
193 -113 369 -121 393 l-14 42 43 0 43 0 12 -57z"/>
<path d="M4520 1491 c0 -405 9 -450 105 -546 53 -54 103 -80 181 -95 234 -46
443 169 394 406 -7 33 -19 72 -27 88 -25 48 -105 126 -158 154 -44 24 -61 27
-150 27 -90 0 -105 -3 -152 -28 l-53 -27 -2 167 -3 168 -67 3 -68 3 0 -320z
m425 -110 c118 -55 163 -193 99 -302 -53 -90 -182 -126 -274 -77 -117 63 -148
224 -62 320 67 74 156 97 237 59z"/>
<path d="M8100 1640 l0 -170 -52 27 c-48 25 -63 28 -153 28 -89 0 -106 -3
-150 -27 -63 -33 -139 -113 -167 -175 -33 -73 -31 -199 4 -274 84 -183 295
-257 471 -167 57 29 125 101 155 166 l27 57 3 353 3 352 -70 0 -71 0 0 -170z
m-125 -259 c43 -19 100 -78 116 -118 5 -13 9 -51 9 -83 0 -49 -5 -65 -32 -106
-117 -172 -378 -96 -378 110 0 68 12 102 53 145 64 68 154 88 232 52z"/>
<path d="M2460 1325 c0 -181 2 -210 20 -259 23 -61 85 -136 142 -172 125 -79
292 -64 402 36 l53 49 34 -35 c43 -45 139 -91 206 -99 108 -14 238 43 306 135
62 83 67 107 67 340 l0 210 -64 0 -65 0 -3 -208 c-3 -203 -4 -209 -28 -245
-41 -61 -92 -91 -164 -95 -75 -5 -128 18 -174 73 -45 55 -52 95 -52 294 l0
181 -65 0 -65 0 0 -190 c0 -208 -6 -239 -58 -293 -87 -93 -225 -89 -310 7 -45
51 -52 90 -52 294 l0 182 -65 0 -65 0 0 -205z"/>
<path d="M4003 1516 c-96 -31 -178 -110 -214 -205 -29 -79 -24 -205 11 -275
34 -67 126 -150 192 -172 147 -51 306 1 399 130 16 21 29 43 29 48 0 4 -35 8
-79 8 -59 0 -82 -4 -92 -16 -30 -36 -90 -56 -154 -52 -74 5 -120 31 -159 93
l-27 40 272 3 272 2 -5 83 c-4 63 -12 96 -32 136 -33 65 -100 132 -163 162
-58 28 -186 36 -250 15z m201 -141 c38 -18 96 -85 96 -112 0 -10 -37 -13 -188
-13 -104 0 -191 3 -195 6 -9 10 17 55 51 87 60 58 155 70 236 32z"/>
<path d="M5530 1521 c-96 -31 -177 -102 -219 -190 -22 -48 -26 -69 -25 -146 0
-103 19 -154 84 -228 102 -116 286 -147 418 -71 l42 25 0 -36 0 -36 68 3 67 3
3 160 c4 249 -14 328 -100 421 -61 66 -133 97 -232 101 -45 1 -92 -1 -106 -6z
m153 -132 c21 -6 56 -26 77 -45 103 -93 90 -255 -26 -334 -52 -34 -145 -40
-201 -11 -157 80 -158 297 -2 375 57 28 93 32 152 15z"/>
<path d="M6272 1515 c-97 -30 -190 -125 -218 -223 -25 -84 -16 -193 21 -261
97 -177 319 -241 482 -138 73 46 152 155 153 210 0 14 -10 17 -65 17 -60 0
-65 -2 -79 -27 -51 -98 -181 -142 -275 -94 -178 91 -151 341 42 392 84 23 178
-17 227 -96 21 -34 23 -35 87 -35 l66 0 -7 33 c-10 48 -70 132 -124 172 -83
62 -208 82 -310 50z"/>
<path d="M7033 1516 c-91 -29 -166 -98 -209 -190 -29 -61 -33 -187 -9 -255 36
-103 132 -188 243 -217 94 -23 155 -12 285 54 4 2 7 -12 7 -32 l0 -36 66 0 65
0 -3 218 c-3 210 -4 219 -29 272 -33 69 -93 131 -161 166 -64 33 -186 43 -255
20z m196 -142 c197 -98 128 -394 -92 -394 -187 0 -278 228 -143 359 66 64 151
76 235 35z"/>
<path d="M8543 1516 c-23 -7 -64 -30 -92 -50 -172 -126 -189 -384 -35 -526 97
-90 230 -118 352 -76 73 25 192 137 192 181 0 3 -32 5 -71 5 -64 0 -75 -3
-115 -32 -37 -26 -57 -33 -108 -36 -74 -5 -125 16 -174 73 -59 66 -63 65 234
65 l266 0 -4 88 c-5 100 -25 147 -90 218 -60 65 -133 97 -232 101 -50 2 -97
-2 -123 -11z m170 -127 c59 -16 152 -111 130 -133 -11 -11 -383 -7 -383 4 0
23 32 70 62 93 60 45 120 56 191 36z"/>
<path d="M9303 1516 c-95 -31 -178 -110 -213 -202 -18 -49 -20 -78 -20 -264
l0 -210 65 0 65 0 0 198 c0 185 1 201 23 242 65 130 230 157 332 56 58 -58 65
-93 65 -310 l0 -186 65 0 65 0 0 186 c0 217 7 252 65 310 101 101 263 74 332
-55 22 -42 23 -54 23 -243 l0 -198 66 0 65 0 -3 223 c-3 203 -5 226 -25 269
-30 66 -96 133 -162 165 -49 25 -67 28 -151 28 -108 0 -155 -17 -232 -84 l-43
-39 -43 39 c-69 60 -124 82 -217 86 -49 2 -96 -3 -122 -11z"/>
<path d="M10372 1323 c4 -158 9 -218 21 -251 74 -197 307 -286 485 -187 25 14
47 23 49 21 10 -9 -19 -86 -46 -123 -30 -41 -100 -83 -139 -83 -20 0 -22 -5
-22 -66 l0 -67 49 5 c103 10 210 90 259 196 l27 57 3 353 3 352 -65 0 -64 0
-4 -197 c-3 -180 -5 -202 -25 -238 -44 -83 -108 -119 -199 -113 -78 5 -136 41
-171 107 -22 42 -23 54 -23 243 l0 198 -71 0 -71 0 4 -207z"/>
<path d="M4800 614 c0 -74 5 -144 10 -155 12 -22 60 -26 60 -5 0 8 -7 16 -15
20 -12 4 -15 30 -15 141 0 128 -1 135 -20 135 -19 0 -20 -7 -20 -136z"/>
<path d="M5832 733 c5 -26 38 -29 38 -4 0 15 -6 21 -21 21 -14 0 -19 -5 -17
-17z"/>
<path d="M8980 696 c0 -19 -6 -36 -12 -39 -10 -3 -10 -9 0 -26 6 -11 12 -53
12 -94 0 -78 9 -97 47 -97 26 0 32 25 8 34 -11 4 -15 22 -15 76 0 54 4 72 15
76 8 4 15 12 15 20 0 8 -7 14 -15 14 -10 0 -15 11 -15 35 0 28 -4 35 -20 35
-16 0 -20 -7 -20 -34z"/>
<path d="M9907 723 c-4 -3 -7 -19 -7 -35 0 -15 -4 -28 -10 -28 -13 0 -13 -27
0 -32 6 -2 12 -38 13 -83 1 -44 6 -86 10 -92 11 -17 67 -17 67 0 0 7 -9 18
-20 25 -17 10 -20 23 -20 78 0 57 3 67 20 71 11 3 20 11 20 18 0 7 -9 15 -20
18 -15 4 -20 14 -20 36 0 29 -16 41 -33 24z"/>
<path d="M6235 660 c-39 -15 -50 -40 -50 -110 0 -72 11 -95 53 -111 17 -7 33
-5 53 5 28 14 29 13 29 -8 0 -43 -48 -68 -90 -46 -13 7 -21 6 -30 -5 -15 -18
15 -35 65 -35 79 0 95 33 95 196 0 106 -1 114 -19 114 -11 0 -21 -5 -23 -12
-3 -8 -11 -7 -28 5 -27 19 -27 19 -55 7z m69 -46 c10 -10 16 -33 16 -64 0 -74
-49 -108 -84 -58 -47 67 14 176 68 122z"/>
<path d="M7678 658 c-43 -15 -62 -104 -37 -176 14 -41 62 -59 97 -36 29 19 39
12 26 -23 -13 -38 -37 -50 -73 -36 -24 9 -33 8 -41 -2 -15 -18 16 -35 65 -35
79 0 95 33 95 196 0 106 -1 114 -19 114 -11 0 -21 -6 -24 -12 -3 -10 -7 -10
-18 -2 -23 18 -43 21 -71 12z m76 -44 c10 -10 16 -33 16 -64 0 -52 -18 -80
-50 -80 -32 0 -50 28 -50 77 0 71 45 107 84 67z"/>
<path d="M4951 641 c-24 -24 -36 -79 -27 -127 10 -51 37 -74 89 -74 48 0 89
22 72 39 -8 8 -20 7 -42 -1 -26 -10 -35 -9 -57 5 -48 32 -34 47 44 47 l70 0 0
30 c0 37 -23 85 -45 94 -33 12 -85 6 -104 -13z m93 -27 c31 -30 20 -44 -34
-44 -54 0 -62 10 -33 42 20 22 46 23 67 2z"/>
<path d="M5181 646 c-17 -20 1 -28 44 -20 40 7 65 -7 65 -37 0 -16 -8 -19 -45
-19 -59 0 -101 -36 -90 -78 12 -47 22 -52 101 -51 l74 1 0 83 c0 108 -18 135
-90 135 -29 0 -52 -6 -59 -14z m107 -138 c-3 -32 -5 -33 -48 -33 -35 0 -45 4
-48 18 -6 29 17 47 60 47 38 0 39 -1 36 -32z"/>
<path d="M5400 550 c0 -103 1 -110 20 -110 18 0 20 7 20 85 0 93 8 106 66 102
20 -1 29 3 32 16 3 13 -3 17 -28 17 -17 0 -40 -5 -51 -10 -13 -7 -19 -7 -19 0
0 5 -9 10 -20 10 -19 0 -20 -7 -20 -110z"/>
<path d="M5590 550 c0 -103 1 -110 20 -110 18 0 20 7 20 85 0 76 2 85 21 96
16 8 28 8 45 0 23 -10 24 -16 24 -96 0 -78 2 -85 20 -85 18 0 20 7 20 88 0
103 -14 132 -61 132 -17 0 -39 -5 -50 -10 -13 -7 -19 -7 -19 0 0 5 -9 10 -20
10 -19 0 -20 -7 -20 -110z"/>
<path d="M5830 550 c0 -103 1 -110 20 -110 19 0 20 7 20 110 0 103 -1 110 -20
110 -19 0 -20 -7 -20 -110z"/>
<path d="M5940 550 c0 -103 1 -110 20 -110 18 0 20 7 20 75 0 62 4 79 20 95
48 48 80 11 80 -93 0 -70 2 -77 20 -77 18 0 20 7 20 81 0 77 -10 115 -34 131
-18 12 -71 9 -85 -4 -11 -10 -14 -10 -18 0 -3 6 -13 12 -24 12 -18 0 -19 -8
-19 -110z"/>
<path d="M6550 550 c0 -103 1 -110 20 -110 18 0 20 7 20 85 0 73 3 86 19 95
27 14 37 13 55 -6 12 -11 16 -36 16 -95 0 -72 2 -79 20 -79 18 0 20 7 20 79 0
59 4 84 16 95 18 19 28 20 55 6 16 -9 19 -22 19 -95 0 -78 2 -85 20 -85 18 0
20 7 20 88 0 105 -13 132 -65 132 -22 0 -41 -8 -54 -21 l-19 -21 -11 21 c-9
16 -21 21 -51 21 -21 0 -42 -4 -45 -10 -3 -5 -11 -10 -16 -10 -6 0 -7 5 -4 10
3 6 -3 10 -14 10 -20 0 -21 -6 -21 -110z"/>
<path d="M6941 647 c-16 -20 -2 -27 40 -21 43 7 69 -7 69 -37 0 -16 -8 -19
-45 -19 -59 0 -101 -36 -90 -78 12 -47 22 -52 101 -50 l74 1 0 82 c0 108 -18
135 -90 135 -27 0 -52 -6 -59 -13z m107 -139 c-3 -32 -5 -33 -48 -33 -35 0
-45 4 -48 18 -6 29 17 47 60 47 38 0 39 -1 36 -32z"/>
<path d="M7160 550 c0 -103 1 -110 20 -110 18 0 20 7 20 85 0 76 2 85 21 96
16 8 28 8 45 0 23 -10 24 -16 24 -96 0 -78 2 -85 20 -85 18 0 20 7 20 88 0
103 -14 132 -61 132 -17 0 -39 -5 -50 -10 -13 -7 -19 -7 -19 0 0 5 -9 10 -20
10 -19 0 -20 -7 -20 -110z"/>
<path d="M7421 646 c-17 -20 1 -28 44 -20 40 7 65 -7 65 -37 0 -16 -8 -19 -45
-19 -59 0 -101 -36 -90 -78 12 -47 22 -52 101 -51 l74 1 0 83 c0 108 -18 135
-90 135 -29 0 -52 -6 -59 -14z m107 -138 c-3 -32 -5 -33 -48 -33 -35 0 -45 4
-48 18 -6 29 17 47 60 47 38 0 39 -1 36 -32z"/>
<path d="M7900 640 c-26 -26 -34 -60 -27 -118 3 -31 12 -52 27 -64 40 -32 158
-17 130 17 -9 10 -18 11 -41 3 -23 -8 -35 -7 -54 6 -47 31 -32 46 45 46 67 0
70 1 70 24 0 37 -20 86 -40 96 -32 17 -88 12 -110 -10z m92 -27 c33 -29 22
-43 -32 -43 -54 0 -62 10 -33 42 20 22 41 23 65 1z"/>
<path d="M8110 550 c0 -103 1 -110 20 -110 18 0 20 7 20 79 0 71 2 82 22 95
29 20 34 20 58 -4 16 -16 20 -33 20 -95 0 -68 2 -75 20 -75 18 0 20 7 20 85 0
73 3 86 19 95 27 14 37 13 55 -6 12 -11 16 -36 16 -95 0 -72 2 -79 20 -79 19
0 20 7 20 90 0 77 -3 93 -20 110 -24 24 -77 26 -102 3 -17 -15 -19 -15 -36 0
-22 20 -72 22 -91 5 -11 -10 -14 -10 -18 0 -3 6 -13 12 -24 12 -18 0 -19 -8
-19 -110z"/>
<path d="M8510 635 c-19 -20 -23 -36 -23 -85 0 -78 25 -110 88 -110 48 0 86
22 69 40 -9 9 -17 9 -32 1 -30 -16 -49 -14 -72 9 -33 33 -24 40 51 40 l72 0
-6 45 c-6 62 -29 85 -82 85 -31 0 -47 -6 -65 -25z m91 -15 c10 -6 19 -20 19
-30 0 -17 -7 -20 -50 -20 -54 0 -58 4 -34 38 17 24 35 28 65 12z"/>
<path d="M8730 550 c0 -103 1 -110 20 -110 18 0 20 7 20 85 0 76 2 85 21 96
16 8 28 8 45 0 23 -10 24 -16 24 -96 0 -78 2 -85 20 -85 18 0 20 7 20 88 0
107 -13 132 -69 132 -20 0 -42 -5 -49 -12 -9 -9 -12 -9 -12 0 0 7 -9 12 -20
12 -19 0 -20 -7 -20 -110z"/>
<path d="M9247 642 c-21 -23 -22 -66 -2 -85 8 -8 37 -18 64 -22 55 -7 74 -30
45 -52 -22 -16 -55 -17 -89 -1 -20 9 -28 9 -38 -1 -21 -21 20 -41 83 -41 66 0
90 18 90 68 0 36 -30 62 -71 62 -40 0 -59 10 -59 31 0 24 40 34 79 21 23 -8
32 -7 41 3 29 35 -112 51 -143 17z"/>
<path d="M9440 651 c0 -4 16 -51 35 -102 19 -52 35 -102 35 -112 0 -27 -19
-57 -35 -57 -8 0 -15 -9 -15 -20 0 -11 6 -20 14 -20 34 0 58 39 101 170 25 74
45 138 45 142 0 4 -8 8 -17 8 -14 0 -24 -19 -41 -75 -12 -42 -27 -73 -32 -70
-5 3 -19 37 -31 75 -17 52 -27 70 -41 70 -10 0 -18 -4 -18 -9z"/>
<path d="M9689 650 c-25 -15 -32 -58 -15 -85 11 -17 29 -25 66 -30 54 -7 71
-25 50 -50 -15 -18 -50 -19 -85 -3 -20 9 -28 9 -38 -1 -20 -21 20 -41 80 -41
40 0 58 5 73 20 44 44 10 110 -57 110 -51 0 -71 14 -57 37 14 22 56 28 85 13
16 -9 24 -9 33 0 29 29 -91 56 -135 30z"/>
<path d="M10061 634 c-29 -37 -30 -130 0 -168 17 -22 29 -26 69 -26 31 0 52 5
60 15 19 23 -1 41 -28 26 -11 -6 -28 -11 -36 -11 -17 0 -56 34 -56 50 0 5 33
10 73 12 l72 3 -3 35 c-5 57 -32 85 -84 88 -40 3 -49 -1 -67 -24z m105 -29
c21 -33 15 -38 -43 -38 -41 0 -48 3 -45 19 8 46 63 58 88 19z"/>
<path d="M10280 550 c0 -103 1 -110 20 -110 18 0 20 7 20 85 0 76 2 85 21 96
16 8 28 8 45 0 23 -10 24 -16 24 -96 0 -78 2 -85 20 -85 18 0 20 7 20 73 0
104 33 144 80 97 16 -16 20 -33 20 -95 0 -70 2 -75 21 -75 20 0 21 4 17 89 -2
70 -7 93 -22 110 -25 27 -77 28 -101 1 l-18 -20 -14 20 c-16 22 -62 27 -94 10
-13 -7 -19 -7 -19 0 0 5 -9 10 -20 10 -19 0 -20 -7 -20 -110z"/>
</g>
</svg>
