<?xml version="1.0" standalone="no"?>
<!DOCTYPE svg PUBLIC "-//W3C//DTD SVG 20010904//EN"
 "http://www.w3.org/TR/2001/REC-SVG-20010904/DTD/svg10.dtd">
<svg version="1.0" xmlns="http://www.w3.org/2000/svg"
 width="1106.000000pt" height="226.000000pt" viewBox="0 0 1106.000000 226.000000"
 preserveAspectRatio="xMidYMid meet">

<g transform="translate(0.000000,226.000000) scale(0.100000,-0.100000)"
fill="#000000" stroke="none">
<path d="M945 2235 c-397 -62 -745 -356 -875 -737 -48 -143 -55 -191 -54 -378
0 -156 3 -186 27 -273 118 -440 478 -762 927 -828 123 -18 322 -7 442 24 182
48 351 142 488 274 137 130 235 282 294 454 79 233 74 521 -15 759 -88 239
-288 464 -519 589 -209 112 -472 155 -715 116z m-452 -615 c25 -95 82 -252
113 -307 83 -150 215 -199 323 -118 49 36 114 127 158 221 21 46 40 83 43 83
3 0 22 -37 43 -83 45 -96 110 -188 160 -223 108 -77 239 -28 321 120 31 55 88
212 113 307 8 32 12 35 52 38 39 3 43 1 37 -15 -9 -22 -268 -871 -343 -1123
-31 -102 -59 -188 -62 -192 -4 -5 -76 224 -161 506 -85 283 -158 512 -161 508
-4 -4 -71 -218 -149 -477 -170 -567 -166 -554 -173 -535 -6 14 -64 204 -302
990 -46 152 -89 288 -94 303 -15 39 -16 38 31 35 39 -3 43 -6 51 -38z"/>
<path d="M4522 1458 c4 -374 5 -384 65 -470 114 -166 368 -190 512 -49 59 57
85 106 101 187 30 153 -51 304 -199 372 -46 21 -71 26 -137 26 -71 0 -90 -4
-143 -30 -34 -17 -63 -28 -66 -26 -3 3 -5 79 -5 169 l0 163 -66 0 -65 0 3
-342z m403 -72 c104 -32 170 -143 145 -245 -44 -185 -301 -222 -388 -56 -46
89 -33 175 37 245 65 65 123 81 206 56z"/>
<path d="M8100 1632 l0 -169 -61 31 c-52 26 -73 30 -143 30 -72 1 -89 -3 -148
-32 -77 -38 -130 -92 -166 -171 -21 -45 -26 -71 -26 -136 0 -99 30 -171 99
-240 167 -168 452 -115 553 103 l26 57 4 348 4 347 -71 0 -71 0 0 -168z m-155
-243 c52 -13 116 -65 139 -113 22 -47 21 -137 -3 -184 -70 -136 -252 -154
-350 -36 -48 60 -59 164 -24 229 22 39 81 86 124 100 55 17 61 17 114 4z"/>
<path d="M2462 1313 c3 -248 9 -271 89 -358 130 -141 355 -147 485 -14 l37 38
43 -39 c105 -97 245 -122 378 -66 51 21 133 102 164 161 27 49 27 54 30 273
l3 222 -65 0 -65 0 -3 -208 c-3 -208 -3 -209 -30 -250 -53 -80 -156 -114 -252
-82 -45 14 -112 87 -125 136 -6 22 -11 121 -11 222 l0 182 -64 0 -65 0 -3
-207 c-3 -205 -3 -209 -29 -245 -97 -141 -290 -133 -364 15 -24 49 -25 57 -25
244 l0 193 -66 0 -65 0 3 -217z"/>
<path d="M4025 1516 c-69 -17 -105 -38 -158 -90 -73 -74 -92 -123 -92 -241 0
-89 3 -106 27 -151 36 -69 124 -148 190 -170 150 -51 309 2 399 132 l30 44
-82 0 c-71 0 -86 -3 -105 -21 -54 -50 -165 -55 -238 -10 -33 21 -86 84 -86
103 0 4 120 9 268 10 l267 3 -1 75 c-2 154 -100 276 -251 315 -67 18 -100 18
-168 1z m192 -152 c39 -22 83 -77 83 -103 0 -8 -57 -11 -195 -11 -107 0 -195
3 -195 8 0 17 41 72 72 95 68 52 157 56 235 11z"/>
<path d="M5547 1520 c-91 -23 -191 -99 -230 -176 -44 -88 -46 -206 -4 -298 83
-180 292 -253 469 -162 l47 24 3 -31 c3 -32 3 -32 66 -35 l63 -3 -3 223 c-3
213 -4 225 -27 273 -33 65 -100 131 -164 160 -59 27 -163 39 -220 25z m128
-131 c58 -15 119 -68 140 -124 53 -136 -43 -285 -184 -287 -72 0 -114 17 -159
66 -79 86 -81 193 -5 277 40 44 63 59 108 70 44 10 52 10 100 -2z"/>
<path d="M6295 1516 c-27 -7 -61 -18 -74 -26 -46 -24 -123 -105 -149 -155 -23
-43 -26 -62 -27 -145 0 -113 18 -162 89 -238 133 -142 359 -142 491 -1 43 46
84 117 85 147 0 8 -20 12 -68 12 -67 0 -68 0 -86 -35 -66 -122 -254 -130 -345
-13 -49 63 -52 171 -7 239 82 124 270 123 353 -2 25 -39 26 -39 89 -39 45 0
64 4 64 13 0 32 -52 117 -97 158 -60 56 -91 73 -161 88 -64 13 -92 13 -157 -3z"/>
<path d="M7063 1520 c-96 -20 -189 -94 -234 -185 -21 -43 -24 -64 -24 -150 0
-118 18 -164 92 -239 109 -109 270 -133 402 -60 24 13 45 24 47 24 2 0 4 -16
4 -35 l0 -35 66 0 66 0 -4 218 c-3 213 -4 218 -31 273 -67 139 -235 221 -384
189z m134 -135 c82 -24 153 -117 153 -200 0 -74 -70 -173 -136 -195 -57 -19
-130 -14 -176 12 -126 69 -145 249 -36 342 61 53 117 64 195 41z"/>
<path d="M8563 1515 c-66 -18 -117 -50 -167 -105 -62 -69 -81 -121 -81 -225 0
-78 4 -98 28 -146 83 -171 295 -243 461 -158 48 24 122 93 142 132 l15 27 -75
0 c-66 0 -80 -4 -124 -31 -82 -51 -182 -41 -250 24 -19 18 -40 44 -48 60 l-15
27 272 0 271 0 -4 83 c-5 99 -30 157 -96 223 -52 53 -98 77 -170 93 -67 14
-94 13 -159 -4z m187 -144 c33 -17 100 -92 100 -112 0 -5 -83 -9 -195 -9 -138
0 -195 3 -195 11 0 24 42 79 77 100 68 42 143 46 213 10z"/>
<path d="M9323 1516 c-90 -23 -173 -91 -221 -181 -27 -49 -27 -54 -30 -272
l-3 -223 65 0 65 0 3 209 3 209 30 44 c94 133 283 122 357 -21 28 -53 28 -54
28 -247 l0 -194 65 0 65 0 0 189 c0 240 14 283 109 339 92 54 211 25 276 -66
l30 -44 3 -209 3 -209 65 0 65 0 -3 223 c-3 218 -3 223 -30 272 -28 53 -105
133 -154 158 -16 8 -57 21 -92 27 -108 22 -222 -13 -296 -89 l-39 -40 -53 48
c-83 76 -201 105 -311 77z"/>
<path d="M10382 1308 c3 -211 4 -226 26 -271 86 -173 304 -243 471 -151 24 13
45 24 47 24 11 0 1 -41 -20 -87 -29 -61 -90 -110 -148 -119 l-38 -7 0 -63 0
-64 30 0 c95 0 226 94 277 199 l28 56 3 353 3 352 -65 0 -66 0 0 -183 c0 -215
-9 -256 -71 -312 -50 -45 -80 -56 -145 -56 -57 0 -115 24 -151 63 -47 50 -53
84 -53 293 l0 195 -66 0 -65 0 3 -222z"/>
<path d="M4800 614 c0 -74 5 -144 10 -155 12 -22 60 -26 60 -5 0 8 -7 16 -15
20 -12 4 -15 30 -15 141 0 128 -1 135 -20 135 -19 0 -20 -7 -20 -136z"/>
<path d="M5837 736 c-7 -16 1 -26 20 -26 7 0 13 9 13 20 0 23 -25 27 -33 6z"/>
<path d="M8980 696 c0 -20 -4 -36 -10 -36 -5 0 -10 -7 -10 -15 0 -8 5 -15 10
-15 6 0 10 -34 10 -83 0 -89 8 -107 47 -107 26 0 32 25 8 34 -11 4 -15 23 -15
81 0 60 3 75 15 75 8 0 15 7 15 15 0 8 -6 15 -14 15 -9 0 -16 12 -18 32 -2 22
-9 34 -20 36 -15 3 -18 -4 -18 -32z"/>
<path d="M9910 700 c0 -18 -6 -33 -15 -36 -8 -4 -15 -12 -15 -19 0 -7 7 -15
15 -19 12 -4 15 -24 15 -90 0 -88 4 -96 51 -96 25 0 25 26 -1 33 -18 5 -20 14
-20 77 0 63 2 72 20 77 11 3 20 12 20 19 0 8 -9 14 -20 14 -16 0 -20 7 -20 35
0 24 -5 35 -15 35 -10 0 -15 -10 -15 -30z"/>
<path d="M4952 640 c-40 -38 -41 -141 -1 -181 34 -34 158 -19 129 16 -9 11
-17 12 -30 5 -29 -15 -55 -12 -75 10 -31 35 -13 50 60 50 57 0 65 2 65 19 0
32 -22 81 -40 91 -31 17 -85 12 -108 -10z m92 -26 c9 -8 16 -24 16 -35 0 -16
-7 -19 -50 -19 -55 0 -65 16 -33 52 20 22 46 23 67 2z"/>
<path d="M5187 649 c-28 -16 -9 -30 34 -23 43 7 69 -7 69 -37 0 -16 -8 -19
-45 -19 -59 0 -101 -36 -90 -78 10 -42 31 -52 107 -50 l68 1 0 82 c0 105 -19
135 -83 135 -23 0 -50 -5 -60 -11z m103 -139 c0 -37 -35 -55 -75 -40 -51 19
-24 70 37 70 36 0 38 -2 38 -30z"/>
<path d="M5400 550 c0 -103 1 -110 20 -110 18 0 20 7 20 85 0 75 2 86 20 95
12 6 30 8 42 4 19 -6 37 8 38 29 0 12 -65 8 -79 -5 -11 -10 -14 -10 -18 0 -3
6 -13 12 -24 12 -18 0 -19 -8 -19 -110z"/>
<path d="M5590 550 c0 -103 1 -110 20 -110 17 0 19 8 22 86 3 99 16 117 62 96
25 -11 26 -15 26 -97 0 -78 2 -85 20 -85 18 0 20 7 20 88 0 103 -14 132 -61
132 -17 0 -39 -5 -50 -10 -13 -7 -19 -7 -19 0 0 5 -9 10 -20 10 -19 0 -20 -7
-20 -110z"/>
<path d="M5838 550 c-3 -99 -1 -110 15 -110 15 0 17 12 17 110 0 89 -3 110
-14 110 -12 0 -15 -22 -18 -110z"/>
<path d="M5948 550 c-3 -99 -1 -110 15 -110 15 0 17 10 17 78 0 82 14 112 53
112 35 0 47 -28 47 -111 0 -72 2 -79 20 -79 18 0 20 7 20 81 0 77 -10 115 -34
131 -18 12 -71 9 -85 -4 -11 -10 -14 -10 -18 0 -3 6 -11 12 -18 12 -11 0 -14
-26 -17 -110z"/>
<path d="M6204 639 c-14 -15 -18 -36 -18 -89 0 -53 4 -74 18 -89 20 -22 80
-29 91 -11 11 18 25 10 25 -14 0 -46 -46 -70 -90 -46 -13 7 -21 6 -30 -5 -15
-18 15 -35 65 -35 79 0 95 33 95 196 0 106 -1 114 -19 114 -11 0 -21 -6 -24
-12 -4 -10 -7 -10 -18 0 -21 19 -74 15 -95 -9z m106 -28 c5 -11 10 -38 10 -61
0 -23 -5 -50 -10 -61 -13 -23 -53 -25 -74 -3 -22 21 -21 102 1 126 21 24 60
23 73 -1z"/>
<path d="M6550 550 c0 -91 3 -110 15 -110 12 0 15 15 15 73 0 78 16 117 50
117 38 0 50 -27 50 -111 0 -72 2 -79 20 -79 18 0 20 7 20 79 0 102 25 134 75
97 16 -12 20 -29 23 -95 3 -61 8 -81 18 -81 21 0 20 167 -2 198 -20 29 -74 30
-99 2 l-18 -20 -19 20 c-21 22 -58 26 -91 9 -16 -9 -22 -9 -25 0 -2 6 -10 11
-18 11 -11 0 -14 -22 -14 -110z"/>
<path d="M6947 649 c-28 -16 -9 -30 34 -23 43 7 69 -7 69 -37 0 -16 -8 -19
-44 -19 -57 0 -89 -25 -89 -70 0 -47 23 -60 105 -58 l68 1 0 82 c0 105 -19
135 -83 135 -23 0 -50 -5 -60 -11z m103 -139 c0 -37 -35 -55 -75 -40 -51 19
-24 70 37 70 36 0 38 -2 38 -30z"/>
<path d="M7160 550 c0 -103 1 -110 20 -110 18 0 20 7 20 85 0 75 2 86 20 95
28 15 59 3 71 -27 5 -13 9 -53 9 -89 0 -50 3 -64 15 -64 22 0 22 166 -1 198
-18 27 -69 30 -96 5 -17 -15 -18 -15 -18 0 0 10 -8 17 -20 17 -19 0 -20 -7
-20 -110z"/>
<path d="M7427 649 c-28 -16 -9 -30 34 -23 43 7 69 -7 69 -37 0 -16 -8 -19
-43 -19 -60 0 -87 -21 -87 -70 0 -50 17 -60 104 -58 l66 1 0 82 c0 105 -19
135 -83 135 -23 0 -50 -5 -60 -11z m103 -139 c0 -37 -35 -55 -75 -40 -51 19
-24 70 37 70 36 0 38 -2 38 -30z"/>
<path d="M7654 639 c-15 -16 -19 -36 -19 -89 0 -53 4 -73 19 -89 20 -22 80
-29 91 -11 11 18 25 11 25 -13 0 -44 -48 -69 -90 -47 -13 7 -21 6 -30 -5 -15
-19 16 -35 68 -35 28 0 45 7 63 26 22 24 24 34 28 155 3 124 2 129 -17 129
-11 0 -22 -6 -25 -12 -4 -10 -7 -10 -18 0 -21 19 -74 15 -95 -9z m100 -25 c10
-10 16 -33 16 -64 0 -52 -18 -80 -50 -80 -32 0 -50 28 -50 80 0 52 18 80 50
80 10 0 26 -7 34 -16z"/>
<path d="M7907 648 c-52 -40 -46 -181 8 -202 26 -10 84 -7 106 5 16 8 18 13 9
24 -9 11 -17 12 -30 5 -29 -15 -55 -12 -75 10 -31 35 -13 50 61 50 l67 0 -6
36 c-9 52 -42 84 -87 84 -20 0 -44 -6 -53 -12z m87 -34 c9 -8 16 -24 16 -35 0
-16 -7 -19 -50 -19 -43 0 -50 3 -50 19 0 25 26 51 50 51 10 0 26 -7 34 -16z"/>
<path d="M8110 550 c0 -103 1 -110 20 -110 18 0 20 7 20 79 0 84 12 111 49
111 37 0 51 -32 51 -113 0 -70 2 -77 20 -77 18 0 20 7 20 83 0 85 8 107 41
107 37 0 49 -28 49 -111 0 -74 1 -79 21 -79 20 0 21 4 17 96 -2 81 -6 98 -22
110 -28 20 -73 17 -95 -5 -19 -19 -20 -19 -37 0 -20 22 -73 26 -93 7 -11 -10
-14 -10 -18 0 -3 6 -13 12 -24 12 -18 0 -19 -8 -19 -110z"/>
<path d="M8511 634 c-31 -40 -30 -142 2 -172 27 -26 93 -30 123 -8 27 21 6 43
-26 26 -28 -15 -66 -5 -80 20 -17 32 -4 40 66 40 62 0 64 1 64 25 0 33 -25 81
-45 89 -39 15 -83 6 -104 -20z m106 -33 c16 -34 9 -41 -42 -41 -52 0 -63 12
-40 46 21 33 64 30 82 -5z"/>
<path d="M8730 550 c0 -103 1 -110 20 -110 17 0 19 8 22 86 3 99 16 117 62 96
25 -11 26 -15 26 -97 0 -78 2 -85 20 -85 18 0 20 7 20 88 0 103 -14 132 -61
132 -17 0 -39 -5 -50 -10 -13 -7 -19 -7 -19 0 0 5 -9 10 -20 10 -19 0 -20 -7
-20 -110z"/>
<path d="M9250 640 c-21 -21 -26 -55 -11 -79 5 -7 33 -17 62 -22 62 -10 78
-22 63 -47 -11 -16 -44 -20 -113 -10 -13 2 -26 -2 -28 -8 -6 -17 43 -34 96
-34 56 0 81 21 81 68 0 38 -30 62 -80 62 -44 0 -63 16 -49 42 11 20 58 25 89
8 13 -7 21 -6 30 5 30 36 -104 51 -140 15z"/>
<path d="M9440 656 c0 -2 17 -53 39 -113 41 -115 41 -150 0 -160 -26 -7 -21
-39 6 -35 11 2 25 8 31 13 14 12 108 288 101 296 -16 15 -35 -12 -57 -80 -13
-42 -26 -74 -30 -72 -3 2 -17 38 -30 79 -18 58 -28 76 -42 76 -10 0 -18 -2
-18 -4z"/>
<path d="M9686 644 c-19 -18 -21 -75 -4 -92 7 -7 24 -12 39 -12 44 0 79 -17
79 -39 0 -31 -60 -43 -102 -20 -15 8 -23 8 -32 -1 -19 -19 22 -40 81 -40 59 0
93 23 93 63 0 39 -22 57 -78 66 -61 9 -70 16 -56 39 14 21 56 27 85 12 31 -17
52 5 25 26 -27 19 -110 18 -130 -2z"/>
<path d="M10065 635 c-21 -20 -25 -34 -25 -85 0 -77 27 -110 88 -110 46 0 83
23 66 40 -9 9 -17 9 -34 0 -28 -15 -66 -5 -80 20 -17 32 -4 40 66 40 l64 0 0
34 c0 19 -9 45 -21 60 -28 36 -89 37 -124 1z m101 -30 c22 -33 11 -45 -41 -45
-24 0 -47 5 -50 10 -11 19 24 60 50 60 15 0 31 -10 41 -25z"/>
<path d="M10280 550 c0 -103 1 -110 20 -110 18 0 20 7 20 85 0 76 2 85 21 96
16 8 28 8 45 0 22 -10 24 -17 25 -83 1 -40 1 -79 0 -85 -1 -7 7 -13 19 -13 18
0 20 6 20 78 0 64 4 82 18 95 49 45 82 6 82 -96 0 -72 1 -77 21 -77 21 0 22 3
17 90 -4 68 -10 96 -23 110 -24 26 -76 26 -100 0 l-18 -20 -14 20 c-16 23 -71
27 -92 8 -11 -10 -14 -10 -18 0 -3 6 -13 12 -24 12 -18 0 -19 -8 -19 -110z"/>
</g>
</svg>
